<?xml version="1.0" standalone="no"?>
<!DOCTYPE svg PUBLIC "-//W3C//DTD SVG 20010904//EN"
 "http://www.w3.org/TR/2001/REC-SVG-20010904/DTD/svg10.dtd">
<svg version="1.0" xmlns="http://www.w3.org/2000/svg"
 width="64.000000pt" height="64.000000pt" viewBox="0 0 64.000000 64.000000"
 preserveAspectRatio="xMidYMid meet">

<g transform="translate(0.000000,64.000000) scale(0.100000,-0.100000)"
fill="#000000" stroke="none">
<path d="M125 589 c-71 -20 -133 -121 -122 -198 3 -22 15 -61 28 -86 27 -54
148 -173 232 -228 l57 -38 57 38 c142 94 263 244 263 326 0 122 -109 218 -212
188 -21 -7 -54 -26 -74 -43 l-35 -31 -27 26 c-30 29 -91 58 -119 56 -10 0 -32
-5 -48 -10z"/>
</g>
</svg>
